<svg width="33" height="33" xmlns="http://www.w3.org/2000/svg">
 <!-- Created with Method Draw - http://github.com/duopixel/Method-Draw/ -->
 <defs>
  <filter height="200%" width="200%" y="-50%" x="-50%" id="svg_21_blur">
   <feGaussianBlur stdDeviation="0" in="SourceGraphic"/>
  </filter>
 </defs>
 <g>
  <title>background</title>
  <rect fill="none" id="canvas_background" height="35" width="35" y="-1" x="-1"/>
  <g display="none" overflow="visible" y="0" x="0" height="100%" width="100%" id="canvasGrid">
   <rect fill="url(#gridpattern)" stroke-width="0" y="0" x="0" height="100%" width="100%"/>
  </g>
 </g>
 <g>
  <title>Layer 1</title>
  <g stroke="null" filter="url(#svg_21_blur)" transform="rotate(90 16.919584274291992,16.301805496215824) " id="svg_21">
   <path stroke="null" id="svg_5" fill="#ffffff" d="m21.752208,7.525258c-0.379706,-0.362897 -1.011664,-0.362897 -1.404647,0c-0.379706,0.350637 -0.379706,0.934214 0,1.284034l7.122365,6.577098l-23.502832,0c-0.547874,0.000817 -0.983341,0.402946 -0.983341,0.908877c0,0.505931 0.435467,0.921137 0.983341,0.921137l23.502832,0l-7.122365,6.564838c-0.379706,0.362897 -0.379706,0.947292 0,1.297111c0.392982,0.362897 1.025826,0.362897 1.404647,0l8.808473,-8.134122c0.392982,-0.350637 0.392982,-0.934214 0,-1.284034l-8.808473,-8.13494z"/>
   <g stroke="null" transform="matrix(0.8850957176517081,0,0,0.8173354316466304,109.00185433035955,146.4977697654889) " id="svg_6"/>
   <g stroke="null" transform="matrix(0.8850957176517081,0,0,0.8173354316466304,109.00185433035955,146.4977697654889) " id="svg_7"/>
   <g stroke="null" transform="matrix(0.8850957176517081,0,0,0.8173354316466304,109.00185433035955,146.4977697654889) " id="svg_8"/>
   <g stroke="null" transform="matrix(0.8850957176517081,0,0,0.8173354316466304,109.00185433035955,146.4977697654889) " id="svg_9"/>
   <g stroke="null" transform="matrix(0.8850957176517081,0,0,0.8173354316466304,109.00185433035955,146.4977697654889) " id="svg_10"/>
   <g stroke="null" transform="matrix(0.8850957176517081,0,0,0.8173354316466304,109.00185433035955,146.4977697654889) " id="svg_11"/>
   <g stroke="null" transform="matrix(0.8850957176517081,0,0,0.8173354316466304,109.00185433035955,146.4977697654889) " id="svg_12"/>
   <g stroke="null" transform="matrix(0.8850957176517081,0,0,0.8173354316466304,109.00185433035955,146.4977697654889) " id="svg_13"/>
   <g stroke="null" transform="matrix(0.8850957176517081,0,0,0.8173354316466304,109.00185433035955,146.4977697654889) " id="svg_14"/>
   <g stroke="null" transform="matrix(0.8850957176517081,0,0,0.8173354316466304,109.00185433035955,146.4977697654889) " id="svg_15"/>
   <g stroke="null" transform="matrix(0.8850957176517081,0,0,0.8173354316466304,109.00185433035955,146.4977697654889) " id="svg_16"/>
   <g stroke="null" transform="matrix(0.8850957176517081,0,0,0.8173354316466304,109.00185433035955,146.4977697654889) " id="svg_17"/>
   <g stroke="null" transform="matrix(0.8850957176517081,0,0,0.8173354316466304,109.00185433035955,146.4977697654889) " id="svg_18"/>
   <g stroke="null" transform="matrix(0.8850957176517081,0,0,0.8173354316466304,109.00185433035955,146.4977697654889) " id="svg_19"/>
   <g stroke="null" transform="matrix(0.8850957176517081,0,0,0.8173354316466304,109.00185433035955,146.4977697654889) " id="svg_20"/>
  </g>
 </g>
</svg>