<?xml version="1.0" encoding="utf-8"?>
<!-- Generator: Adobe Illustrator 21.0.0, SVG Export Plug-In . SVG Version: 6.00 Build 0)  -->
<svg version="1.1" id="Слой_1" xmlns="http://www.w3.org/2000/svg" xmlns:xlink="http://www.w3.org/1999/xlink" x="0px" y="0px"
	 viewBox="0 0 519 84" style="enable-background:new 0 0 519 84;" xml:space="preserve">
<style type="text/css">
	.st0{fill:#FFFFFF;}
</style>
<g>
	<path class="st0" d="M28.7,43.9c4.3-1,11.9-4,11.9-12.5c0-12-14.7-11.6-14.7-11.6H5.7v1c0,0,6-0.3,6,5.3v38.4
		c0,5.6-6.1,5.1-6.1,5.1V71h21.5c2.8,0,5.6-0.6,8.2-1.6c4.2-1.8,9-5.4,9-12.7C44.3,45.9,32.3,44.2,28.7,43.9z M18,25.4
		c0-2.5,2-4,4.3-4.3c1.2-0.1,2.5-0.1,3.6,0.1c2,0.4,3.8,1.2,5.1,2.7c0.7,0.7,1.2,1.5,1.6,2.5c0.6,1.6,1,3.7,1,6.4
		c0,4.8-1.8,7.6-4,9.2c-1.5,1.2-3.4,1.8-5.4,1.8H18V25.4z M28.6,68.8L27.9,69c-1,0.2-1.9,0.3-2.8,0.4s-1.9,0.1-2.8,0.1
		c-0.4-0.1-0.7-0.1-1-0.2c-1.6-0.5-2.8-1.5-3.2-3.4c-0.1-0.3-0.1-0.7-0.1-1V45.1h9.2c1.2,0,10-0.3,9.9,13
		C37,64.9,32.8,67.7,28.6,68.8z"/>
	<path class="st0" d="M94.5,69.4c-3-1.8-4.2-5.5-5.5-8.6l-3.2-8.1c-1.3-3.2-2.5-6.4-3.6-9.6l-3.6-9.5c-1-2.5-1.9-5-2.8-7.6
		c-0.6-1.3-1-2.7-1.6-4.1l-0.1-0.3l-8.5-1.8c0.5,0.4,0.9,0.8,1.3,1.3c0.3,0.4,0.4,0.7,0.6,1.1l1.6,4.3L61,47.6L54.7,65
		c-2.5,4.8-5.5,4.9-5.5,4.9V71h14v-1.1c0,0-5.3,0.3-6.3-3.4c-0.3-1-0.3-2.4,0.2-4.1l3.2-8.3l0.9-2.5h17.7l0.9,2.5l3.3,8.6
		c0.3,0.7,0.4,1.3,0.5,1.8c0.8,5.7-4.9,5.4-4.9,5.4V71h17.2v-1.1l-0.4-0.1C95.2,69.7,94.9,69.6,94.5,69.4z M61.7,50.2l0.9-2.5
		l7.3-19.2l0.1-0.2l7.4,19.4l0.9,2.5C78.3,50.2,61.7,50.2,61.7,50.2z"/>
	<path class="st0" d="M137.8,20.8c0,0,6.2-0.2,6.5,5v33.9l-25.8-39.9h-12.2V21c0,0,5.6-0.4,6,4.6v39.3c0,0.4,0,0.8-0.1,1.2
		c-1,4.1-5.9,3.9-5.9,3.9v1h13.4v-1c0,0-4.9,0.2-5.9-3.8c-0.1-0.4-0.1-0.8-0.1-1.3V24l30.4,47h1.6V25.8c0.3-5.2,6-5,6-5v-1h-13.9
		L137.8,20.8L137.8,20.8z"/>
	<path class="st0" d="M195.1,49.2l-5.3-0.2v1.5c2.1,0.1,3.6,0.2,4.8,0.6c1.4,0.7,2.4,2,2.4,4.5l0.1,7.2v1.5V65
		c-0.1,0.6-0.2,1.2-0.4,1.6c-0.3,0.6-0.8,1.1-1.6,1.7l-0.2,0.1c-2.1,1.1-4.4,1.9-6.7,2.1h-0.6c-1.3,0-2.5-0.1-3.6-0.3
		c-6.4-1.5-9.8-7.6-11.6-13.1c-1.7-5-2.2-10.4-1.8-15.6c0.7-7.8,2.7-12.7,5-15.8c2-2.7,4.6-4.6,7.6-5.3c1-0.2,2-0.3,3.2-0.3
		c3.4,0,6.8,1,9.7,3c0.9,0.6,1.7,1.3,2.3,2.1c0.8,0.9,1.4,1.8,1.9,2.9c1,2,1.5,4.4,2,6.9c0.1,0.4,0.1,0.8,0.1,1.3v0.1h1.8v-0.1V36
		c0-8.1,0.1-12.7,0.3-16.2h-1.7c0,0,0,0.1,0,0.4l-0.2,1.3c-0.1,0.7-0.4,1.4-0.7,2c-0.1,0.2-0.3,0.4-0.6,0.6
		c-0.6,0.5-1.3-0.1-1.8-0.5c-3.4-2.4-6.7-4.6-12.8-4.7c-1,0-2.1,0-3.2,0.1c-0.3,0.1-0.6,0.1-1,0.1c-2.8,0.5-5.5,1.5-7.8,2.9
		C169,25.4,163,32.2,163,46.4c0,2,0.1,3.9,0.5,6c1,6.5,3.8,11.6,8.1,15c3.5,2.9,8.3,4.8,14.5,4.8h0.2c0.6,0,1.1-0.1,1.7-0.1
		c4.1-0.3,7.2-1.7,10.2-3.9c1.5-1.1,1.8-1.3,2.4-1.3c1.2,0,1.9,2.5,2,4.1h2l-0.2-9.1l0.1-8v-0.3c0-1.7,0.7-2.5,1.5-2.9
		c0.5-0.1,1.1-0.3,1.8-0.3V49c-1.1,0.1-2.7,0.2-4.5,0.2H195.1z"/>
	<path class="st0" d="M256,40.9c-15.8-7.8-9.4-16.6-9.4-16.6c0.7-1,1.5-1.9,2.5-2.7c2.4-1.8,5.7-1.6,8.4-0.8
		c1.1,0.3,2.2,0.7,3.2,1.5c0.8,0.6,1.5,1.3,2,2.1c1.1,1.5,1.9,3.2,2.5,4.9c0.5,1.5,0.9,3.2,1,4.8h1.6v-6.7l0.1-8.2h-1.4l-0.1,1
		c-0.1,0.6-0.3,1.3-0.8,1.8c-1.1,1.4-2.7,0.2-3.7-0.5c-1.4-0.9-2.9-1.6-4.6-2c-1.1-0.3-2.3-0.5-3.4-0.6h-0.2c-0.6,0-1.3,0-1.9,0.1
		c-1.8,0.2-3.6,0.7-5.3,1.5c-2.3,1.1-4.3,2.9-5.4,5.2c-1.1,2.2-1.3,4.8-1.1,7.1c0,0,0,7.2,7.8,11.8c7.9,4.6,17.4,10.2,16.2,17.2
		c-0.6,4-2.9,7.8-7.1,8.6c-1.5,0.4-3.1,0.4-4.6,0.1c-0.7-0.1-1.3-0.3-2-0.5c-1.1-0.3-2-0.7-2.9-1.5c-0.8-0.6-1.5-1.3-2.1-2.1
		c-1.1-1.5-2-3.1-2.6-4.8c-0.8-2.2-1.3-4.7-1.4-7.1v-0.3h-1.6l0.1,9l-0.1,8.4h1.3l0.2-1c0.2-0.7,0.4-1.5,1-2s1.4-0.4,2-0.1
		c0.8,0.4,1.5,0.9,2.2,1.4c0.7,0.4,1.5,0.8,2.2,1c1.5,0.6,3.2,1,4.8,1.1c1.7,0.2,3.4,0.1,5-0.1c2.3-0.4,4.6-1.2,6.6-2.5
		c2.7-1.8,4.4-4.5,5-7.6c0.3-1.3,0.4-2.5,0.4-3.7C270.7,52,265.5,45.5,256,40.9z"/>
	<path class="st0" d="M281.9,35h1.7c0-6.4,1.3-13.8,9.7-13.8h5.5v7.5v0.1c0,0,0,0,0,0.1v37.5L306,71c-0.3-0.5-0.6-1-0.8-1.7
		c-0.1-0.4-0.1-0.8-0.1-1.3v-2.8v-0.4V21.2h5.5c8.4,0,9.7,7.4,9.7,13.8h1.7V19.8h-40V35H281.9z"/>
	<path class="st0" d="M359.7,20.8c0,0,6.7-0.3,6.7,5.3V50c0,6-0.1,19.4-14.8,19.4c-1.6,0-3.2-0.3-4.6-1c-0.3-0.1-0.6-0.4-0.9-0.5
		c-0.6-0.4-1-0.8-1.5-1.3c-2-2.1-3.1-5-3.6-8c-0.1-1-0.3-2.2-0.3-3.3c-0.1-2.3,0-4.7,0-7V27v-1.2v-1.4l-7.2-4.6
		c0.4,0.5,0.6,1.1,0.8,1.7c0.1,0.4,0.1,0.8,0.1,1.3v30c0,2,0,3.9,0.4,5.9c0.3,1.5,0.7,2.9,1.3,4.3c0.6,1.7,1.5,3.2,2.7,4.5l0.4,0.5
		c1.3,1.3,2.8,2.3,4.4,3c2.4,1.1,4.9,1.4,7.5,1.4c13.9,0,16.7-9.7,16.7-22.3v-24c0-5.6,6-5.3,6-5.3v-1h-14.1V20.8z"/>
	<path class="st0" d="M411.2,20.1c-1.3-0.2-2.6-0.3-3.9-0.3H395h-2.1H385v1.3c0,0,6-0.5,6,4.8v39.2c-0.2,5-6,4.6-6,4.6V71h6h6.3h6.2
		c9.3,0,26.1-2.9,26.7-26.2C430.6,26.1,419.2,21.2,411.2,20.1z M403.5,69.7c-3.4,0-5.9,0.1-6.2-4.6V25.4c0.3-4.2,3.3-4.3,6.4-4.3
		c4,0.2,19.5-0.8,19.5,24.3C423.2,53.1,422.9,69.7,403.5,69.7z"/>
	<path class="st0" d="M453,65V24.4l-7.2-4.6c0.4,0.5,0.6,1.1,0.8,1.7c0.1,0.4,0.1,0.8,0.1,1.3V65c0,0.4-0.1,0.9-0.2,1.4
		c-1,3.8-5.8,3.6-5.8,3.6v1H459v-1C458.9,70,453.2,70.3,453,65z"/>
	<path class="st0" d="M491.2,19.1c-12.6,0-22.8,12-22.8,26.8s10.2,26.8,22.8,26.8s22.8-12,22.8-26.8C514,31,503.8,19.1,491.2,19.1z
		 M491.2,70.9c-9,0-16.2-11.3-16.2-25.3s7.3-25.3,16.2-25.3c9,0,16.3,11.3,16.3,25.3C507.5,59.5,500.2,70.9,491.2,70.9z"/>
</g>
</svg>
