<?xml version="1.0" encoding="utf-8"?>
<!-- Generator: Adobe Illustrator 21.0.0, SVG Export Plug-In . SVG Version: 6.00 Build 0)  -->
<svg version="1.1" id="Слой_1" xmlns="http://www.w3.org/2000/svg" xmlns:xlink="http://www.w3.org/1999/xlink" x="0px" y="0px"
	 viewBox="0 0 111 43" style="enable-background:new 0 0 111 43;" xml:space="preserve">
<style type="text/css">
	.st0{fill:#131116;}
</style>
<g>
	<path class="st0" d="M14.8,22.1L14.8,22.1c2.2-0.5,6.1-2.1,6.1-6.4c0-6.2-7.6-5.9-7.6-5.9H3v0.6L12.6,22h-0.1H6v10.7
		c0,2.9-3.1,2.6-3.1,2.6V36H14c1.4,0,2.9-0.3,4.2-0.8c2.2-0.9,4.7-2.8,4.7-6.6C22.8,23.1,16.7,22.2,14.8,22.1z M7.2,10.3h4.9
		c0.4,0,0.8,0,1.3,0.1h0.1c0.1,0,0.2,0,0.3,0c1.4,0.3,2.6,1.2,3.1,2.6c0.3,0.8,0.5,1.9,0.5,3.3c0,2.1-0.7,3.5-1.5,4.4L7.2,10.3z
		 M14.7,34.9L14.3,35c-0.9,0.2-1.8,0.3-2.4,0.3c-0.3,0-0.6,0-0.9-0.1c-0.8-0.3-1.4-0.8-1.6-1.7c0-0.2-0.1-0.4-0.1-0.5V22.7h0.6
		c0.5,0,0.9,0,1.4,0h1.5c0.7,0,1.4,0,2.2,0.1c0.3,0.1,0.6,0.1,0.9,0.3c0.3,0.1,0.6,0.3,0.9,0.5c0.3,0.3,0.6,0.5,0.9,0.9
		s0.6,0.9,0.8,1.3c0.3,0.6,0.4,1.2,0.5,1.8c0.1,0.6,0.1,1.2,0.1,1.7C19.1,32.9,16.8,34.3,14.7,34.9z"/>
	<path class="st0" d="M48.6,35.2c-0.5-0.3-0.9-0.8-1.3-1.3c-0.4-0.5-0.6-1.1-0.9-1.7c-0.1-0.1-8.5-22.3-8.5-22.3l0,0l0,0l-1.2,0.6
		l-0.5,1.2l-0.6,1.6L31.5,24l-3.3,8.9c-1.3,2.4-2.8,2.5-2.8,2.5V36h7.2v-0.6c0,0-2.7,0.1-3.2-1.8c-0.1-0.5-0.1-1.2,0.1-2.1l1.6-4.3
		l0.5-1.3h9.1l0.5,1.3l1.7,4.4c0.1,0.4,0.2,0.6,0.2,0.9c0.4,2.9-2.5,2.8-2.5,2.8V36h8.9v-0.6h-0.2C49,35.4,48.8,35.3,48.6,35.2z
		 M31.8,25.3l0.5-1.3l3.7-9.9V14l3.8,10l0.5,1.3H31.8z"/>
	<path class="st0" d="M72.2,10.2c0,0,3.2-0.1,3.3,2.6V23L67,9.7h-3.9l12.3,19.1h0.8v-4.7V24V12.7c0.1-2.7,3.1-2.6,3.1-2.6V9.7h-7.2
		L72.2,10.2L72.2,10.2z"/>
	<path class="st0" d="M54.8,9.7v0.6c0,0,2.9-0.2,3.1,2.4v20.2c0,0.2,0,0.4-0.1,0.6c-0.5,2.1-3,2-3,2V36h6.9v-0.5c0,0-2.5,0.1-3-2
		c-0.1-0.2-0.1-0.4-0.1-0.6V11.8L74.2,36H75v-4.7L61,9.7H54.8z"/>
	<path class="st0" d="M105.7,24.8h-4.1l-2.7-0.1v0.8c1.1,0,1.9,0.1,2.4,0.3c0.7,0.4,1.2,1,1.2,2.3l0.1,3.7v0.8v0.3
		c0,0.3-0.1,0.6-0.2,0.8c-0.1,0.3-0.4,0.6-0.8,0.9l-0.1,0.1c-1.1,0.6-2.3,1-3.5,1.1h-0.3c-0.6,0-1.3,0-1.9-0.1c-3.3-0.8-5-3.9-6-6.7
		c-0.9-2.6-1.2-5.3-0.9-8c0.4-4,1.4-6.6,2.6-8.1c1-1.4,2.4-2.3,3.9-2.7c0.5-0.1,1-0.1,1.6-0.1c1.8,0,3.5,0.5,5,1.5
		c0.5,0.3,0.9,0.7,1.2,1.1c0.4,0.5,0.7,0.9,1,1.5c0.5,1,0.8,2.3,1,3.6c0,0.2,0.1,0.4,0.1,0.6l0,0h0.9l0,0V18c0-4.2,0-6.6,0.1-8.4
		h-0.9c0,0,0,0.1,0,0.2l-0.1,0.6c-0.1,0.4-0.2,0.7-0.4,1c-0.1,0.1-0.1,0.2-0.3,0.3c-0.3,0.3-0.6-0.1-0.9-0.3
		c-1.8-1.2-3.5-2.4-6.6-2.4c-0.5,0-1.1,0-1.6,0.1c-0.2,0-0.3,0.1-0.5,0.1c-1.4,0.3-2.8,0.8-4,1.5c-3,1.7-6,5.3-6,12.6
		c0,1,0.1,2,0.3,3.1c0.5,3.3,1.9,6,4.1,7.7c1.8,1.5,4.2,2.5,7.5,2.5H97c0.3,0,0.6,0,0.9,0c2.1-0.1,3.7-0.9,5.2-2
		c0.8-0.6,0.9-0.6,1.2-0.6c0.6,0,1,1.3,1,2.1h1l-0.1-4.7v-4.1v-0.1c0-0.9,0.4-1.3,0.8-1.5c0.3-0.1,0.5-0.1,0.9-0.1v-0.8
		C107.4,24.8,106.6,24.8,105.7,24.8z"/>
</g>
</svg>
