<svg xmlns="http://www.w3.org/2000/svg" viewBox="0 0 38.283 24">
  <path id="behance-brands" d="M15.42,86.154a5.044,5.044,0,0,0,3.217-4.918c0-4.692-3.5-5.836-7.53-5.836H0V98.955H11.418c4.28,0,8.3-2.054,8.3-6.839C19.72,89.158,18.317,86.971,15.42,86.154ZM5.178,79.421h4.858c1.868,0,3.549.525,3.549,2.692,0,2-1.309,2.8-3.157,2.8H5.178v-5.5Zm5.536,15.533H5.178V88.467H10.82c2.28,0,3.722.95,3.722,3.363C14.542,94.209,12.821,94.954,10.714,94.954Zm23.827-16H24.99v-2.32h9.551Zm3.742,11.718c0-5.045-2.951-9.252-8.3-9.252-5.2,0-8.727,3.908-8.727,9.026,0,5.31,3.343,8.953,8.727,8.953,4.074,0,6.713-1.834,7.982-5.736H33.83c-.445,1.456-2.28,2.227-3.7,2.227-2.745,0-4.187-1.608-4.187-4.34h12.3C38.263,91.272,38.283,90.972,38.283,90.673ZM25.947,88.6a3.661,3.661,0,0,1,3.888-3.642c2.353,0,3.536,1.382,3.735,3.642Z" transform="translate(0 -75.4)"/>
</svg>
